{"scene":0,"scenes":[{"nodes":[0]}],"asset":{"version":"2.0","generator":"https://github.com/mikedh/trimesh"},"accessors":[{"componentType":5125,"type":"SCALAR","bufferView":0,"count":343209,"max":[57511],"min":[0]},{"componentType":5126,"type":"VEC3","byteOffset":0,"bufferView":1,"count":57512,"max":[1.1334854364395142,1.0432568788528442,0.9114844799041748],"min":[-1.128589153289795,-1.456931710243225,-1.072446346282959]},{"componentType":5121,"normalized":true,"type":"VEC4","byteOffset":0,"bufferView":2,"count":57512,"max":[234,187,165,255],"min":[0,0,0,255]},{"componentType":5126,"count":57512,"type":"VEC3","byteOffset":0,"bufferView":3,"max":[1.0,0.999828040599823,0.9999832510948181],"min":[-0.9999963045120239,-0.9999248385429382,-0.9999890923500061]}],"meshes":[{"name":"face_mesh_poisson_me.ply","extras":{"processed":true},"primitives":[{"attributes":{"POSITION":1,"COLOR_0":2,"NORMAL":3},"indices":0,"mode":4}]}],"nodes":[{"name":"world","children":[1]},{"name":"face_mesh_poisson_me.ply","mesh":0}],"buffers":[{"uri":"gltf_buffer_0.bin","byteLength":1372836},{"uri":"gltf_buffer_1.bin","byteLength":690144},{"uri":"gltf_buffer_2.bin","byteLength":230048},{"uri":"gltf_buffer_3.bin","byteLength":690144}],"bufferViews":[{"buffer":0,"byteOffset":0,"byteLength":1372836},{"buffer":1,"byteOffset":0,"byteLength":690144},{"buffer":2,"byteOffset":0,"byteLength":230048},{"buffer":3,"byteOffset":0,"byteLength":690144}]}